<?xml version="1.0" encoding="UTF-8"?>
<svg id="Layer_1" xmlns="http://www.w3.org/2000/svg" version="1.1" viewBox="0 0 1000 1000">
  <!-- Generator: Adobe Illustrator 30.1.0, SVG Export Plug-In . SVG Version: 2.1.1 Build 136)  -->
  <defs>
    <style>
      .st0, .st1 {
        isolation: isolate;
      }

      .st2, .st1 {
        fill: #0f172a;
      }

      .st1 {
        font-family: InterDisplay-SemiBold, 'Inter Display';
        font-size: 150px;
        font-weight: 600;
      }
    </style>
  </defs>
  <g class="st0">
    <text class="st1" transform="translate(348.3 542.4)"><tspan x="0" y="0">Skysirv</tspan></text>
  </g>
  <path class="st2" d="M239.6,419.2h32.1c-12.2-7.2-26.4-11.4-41.6-11.4-45.1,0-81.7,36.6-81.7,81.7s.3,7.4.8,11.1l90.5-81.4Z"/>
  <path class="st2" d="M310.1,473c-3.3-16.2-11.5-30.7-22.9-41.9l-83,74.7h-54.2c3.3,16.3,11.4,30.8,22.8,42l83.2-74.8h54.2Z"/>
  <path class="st2" d="M220.4,559.6h-32.4c12.3,7.4,26.6,11.6,42,11.6,45.1,0,81.7-36.6,81.7-81.7s-.3-7.6-.8-11.2l-90.5,81.4Z"/>
</svg>