<?xml version="1.0" encoding="UTF-8"?>
<svg id="Layer_1" xmlns="http://www.w3.org/2000/svg" version="1.1" viewBox="0 0 1000 1000">
  <!-- Generator: Adobe Illustrator 30.1.0, SVG Export Plug-In . SVG Version: 2.1.1 Build 136)  -->
  <defs>
    <style>
      .st0, .st1 {
        isolation: isolate;
      }

      .st2, .st1 {
        fill: #0f172a;
      }

      .st1 {
        font-family: InterDisplay-SemiBold, 'Inter Display';
        font-size: 150px;
        font-weight: 600;
      }
    </style>
  </defs>
  <g class="st0">
    <g class="st0">
      <text class="st1" transform="translate(348.3 542.4)"><tspan x="0" y="0">Skysirv</tspan></text>
    </g>
  </g>
  <g>
    <path class="st2" d="M310.1,473c-3.3-16.2-11.5-30.7-22.9-41.9l-83,74.7h-54.2c3.3,16.3,11.4,30.8,22.8,42l83.2-74.8h54.2-.1Z"/>
    <path class="st2" d="M220.4,559.6h-31.3c-.3,0-.4.4-.2.6,9.9,5.8,21.2,9.5,33.2,10.7,51.5,4.9,94.4-39.4,89-90.8,0-.3,0-.6-.1-1.1s-.3-.3-.5-.2l-90.1,81h0Z"/>
    <path class="st2" d="M239.7,419.5h31.3c.3,0,.4-.4.2-.6-9.9-5.8-21.2-9.5-33.2-10.7-51.5-4.9-94.4,39.4-89,90.8s0,.6.1,1.1.3.3.5.2l90.1-81h0Z"/>
  </g>
</svg>