<?xml version="1.0" encoding="UTF-8"?>
<svg id="Layer_1" xmlns="http://www.w3.org/2000/svg" version="1.1" viewBox="0 0 706.7 184.4">
  <!-- Generator: Adobe Illustrator 30.1.0, SVG Export Plug-In . SVG Version: 2.1.1 Build 136)  -->
  <defs>
    <style>
      .st0, .st1 {
        isolation: isolate;
      }

      .st2, .st1 {
        fill: #0f172a;
      }

      .st1 {
        font-family: InterDisplay-SemiBold, 'Inter Display';
        font-size: 150px;
        font-weight: 600;
      }
    </style>
  </defs>
  <g class="st0">
    <g class="st0">
      <g class="st0">
        <text class="st1" transform="translate(203.3 145.1)"><tspan x="0" y="0">Skysirv</tspan></text>
      </g>
    </g>
  </g>
  <g>
    <path class="st2" d="M165.1,75.7c-3.3-16.2-11.5-30.7-22.9-41.9L59.2,108.5H5c3.3,16.3,11.4,30.8,22.8,42l83.2-74.8h54.2-.1Z"/>
    <path class="st2" d="M75.4,162.3h-31.3c-.3,0-.4.4-.2.6,9.9,5.8,21.2,9.5,33.2,10.7,51.5,4.9,94.4-39.4,89-90.8,0-.3,0-.6-.1-1.1s-.3-.3-.5-.2l-90.1,81h0v-.2Z"/>
    <path class="st2" d="M126.2,21.6c-9.9-5.8-21.2-9.5-33.2-10.7C41.5,6-1.4,50.3,4,101.7c0,.4,0,.8.1,1.2.1.4.3.2.5.1L94.7,22v.2h31.3c.3,0,.4-.4.2-.6Z"/>
  </g>
</svg>