<?xml version="1.0" encoding="UTF-8"?>
<svg id="Layer_1" xmlns="http://www.w3.org/2000/svg" version="1.1" viewBox="0 0 1000 1000">
  <!-- Generator: Adobe Illustrator 30.1.0, SVG Export Plug-In . SVG Version: 2.1.1 Build 136)  -->
  <defs>
    <style>
      .st0, .st1 {
        isolation: isolate;
      }

      .st2 {
        fill: #0b1220;
      }

      .st1 {
        fill: #0f172a;
        font-family: InterDisplay-SemiBold, 'Inter Display';
        font-size: 150px;
        font-weight: 600;
      }
    </style>
  </defs>
  <g class="st0">
    <g class="st0">
      <text class="st1" transform="translate(378.6 543.6)"><tspan x="0" y="0">Skysirv</tspan></text>
    </g>
  </g>
  <g>
    <path class="st2" d="M222.9,583.1c-52.2,0-94.8-42.5-94.8-94.8s42.5-94.8,94.8-94.8,94.8,42.5,94.8,94.8-42.5,94.8-94.8,94.8ZM222.9,399.4c-49.1,0-89,39.9-89,89s39.9,89,89,89,89-39.9,89-89-39.9-89-89-89Z"/>
    <path class="st2" d="M339.9,454.7c-1.5-.6-5.5-5.3-23.4-3.8-6.1.5-23.4,5.9-45.4,12.8l-51.5-20.8-15.5,1.7,41.4,27.1c-14.3,4.4-29.4,8.9-43.9,12.8l-30.3-21-8.4,2.3,25.6,32.7-7.4,15.3,10.7-1.3,7.1-10.3c16.7-.5,36.7-2.4,59.9-7.1l-10,40.4,12.7-5.5,19.7-39.9c62-14.8,67.3-26.2,68.5-29.3,1.3-3.5-8.4-5.7-9.9-6.2Z"/>
    <polygon class="st2" points="142.6 552.1 245.6 533.3 247.5 522 142.6 552.1"/>
    <polygon class="st2" points="130.8 536.2 249.5 512.6 251.9 500.6 130.8 536.2"/>
    <polygon class="st2" points="179.1 509.2 123.9 520.5 182.6 502.3 179.1 509.2"/>
    <polygon class="st2" points="179.4 492.8 120.4 506.1 175.2 488.1 179.4 492.8"/>
    <polygon class="st2" points="170.4 479.5 117.9 491.7 166.2 474.8 170.4 479.5"/>
  </g>
</svg>