<?xml version="1.0" encoding="UTF-8"?>
<svg id="Layer_1" xmlns="http://www.w3.org/2000/svg" version="1.1" viewBox="0 0 1444.2 1000">
  <!-- Generator: Adobe Illustrator 30.1.0, SVG Export Plug-In . SVG Version: 2.1.1 Build 136)  -->
  <defs>
    <style>
      .st0, .st1, .st2 {
        fill: #fff;
      }

      .st1 {
        font-family: InterDisplay-Light, 'Inter Display';
        font-weight: 300;
      }

      .st1, .st2 {
        font-size: 150px;
      }

      .st3, .st2 {
        isolation: isolate;
      }

      .st2 {
        font-family: InterDisplay-SemiBold, 'Inter Display';
        font-weight: 600;
      }
    </style>
  </defs>
  <g class="st3">
    <g class="st3">
      <g class="st3">
        <g class="st3">
          <text class="st2" transform="translate(427.2 542.3)"><tspan x="0" y="0">Skysirv</tspan></text>
        </g>
      </g>
    </g>
  </g>
  <g>
    <path class="st0" d="M389,472.9c-3.3-16.2-11.5-30.7-22.9-41.9l-83,74.7h-54.2c3.3,16.3,11.4,30.8,22.8,42l83.2-74.8h54.2-.1Z"/>
    <path class="st0" d="M299.3,559.5h-31.3c-.3,0-.4.4-.2.6,9.9,5.8,21.2,9.5,33.2,10.7,51.5,4.9,94.4-39.4,89-90.8,0-.3,0-.6-.1-1.1s-.3-.3-.5-.2l-90.1,81h0v-.2h0Z"/>
    <path class="st0" d="M318.6,419.4h31.3c.3,0,.4-.4.2-.6-9.9-5.8-21.2-9.5-33.2-10.7-51.5-4.9-94.4,39.4-89,90.8s0,.6.1,1.1.3.3.5.2l90.1-81h0v.2h0Z"/>
  </g>
  <text class="st1" transform="translate(957.7 541.3)"><tspan x="0" y="0">Live</tspan></text>
</svg>