<?xml version="1.0" encoding="UTF-8"?>
<svg id="Layer_1" xmlns="http://www.w3.org/2000/svg" version="1.1" viewBox="0 0 1000 1000">
  <!-- Generator: Adobe Illustrator 30.1.0, SVG Export Plug-In . SVG Version: 2.1.1 Build 136)  -->
  <defs>
    <style>
      .st0, .st1 {
        isolation: isolate;
      }

      .st2, .st1 {
        fill: #0f172a;
      }

      .st1 {
        font-family: InterDisplay-SemiBold, 'Inter Display';
        font-size: 150px;
        font-weight: 600;
      }
    </style>
  </defs>
  <path class="st2" d="M239.4,448.2c2.5-3.9,5.5-9.1,6-13.7.3-2.9-1.8-5-4.6-5s-5.3,1-7.7,2.3c-9.2,4.8-20.5,14.6-28.4,21.8-.9.8-2.7,1.3-3.9,1l-11.7-2.5-15.3-3.4c-5.1-1.2-10-2.4-15.2-3.3-5.8-1-8.7,2-11.1,6.9-.3.6,0,1.1.6,1.4l30.1,18.3c1,.6,1.9,1.3,2.6,2.3.7.9.5,2.4-.3,3.2-10,11.2-32.3,32.4-43.8,42l-6.6,5.5c-5.7,4.8-14.4,8-21.7,4.7-1.6-.7-8-3.3-8.4-13.9v-84.1c0-12.8,8.4-23.9,19.8-27.9,3.9-1.3,7.5-1.6,11.5-1.6h121.5c15.5.1,28.6,13.4,28.6,29.5v121.1c0,7.1-2.5,14-6.5,19.5-5.4,7.3-13.8,11.6-22.7,11.6h-80.2c-4.5,0-8.8-1.6-12.2-4.6-.9-.8-1.5-1.5-1.7-1.9-3.7-6.2-3.8-12.2-3.6-14.1,1.8-24.2,14.6-39.2,28.6-58.5,2.8-3.8,5.7-7.3,8.8-10.8,1.4-1.6,3.9-1.5,5.3-.1,1,1,1.7,2,2.3,3.2,2.1,4,4,7.9,5.7,12.2l8.5,21.5c1.7,4.3,9.5-3.6,8.8-11.1l-1.5-16.5-2.8-28.2c0-.6.2-1.4.6-1.8l9.3-10.1c4.2-4.6,7.9-9.4,11.4-14.7h0v-.2Z"/>
  <g class="st0">
    <text class="st1" transform="translate(331.4 543.6)"><tspan x="0" y="0">Skysirv</tspan></text>
  </g>
</svg>