<?xml version="1.0" encoding="UTF-8"?><svg id="Layer_1" xmlns="http://www.w3.org/2000/svg" width="1000" height="1000" viewBox="0 0 1000 1000"><path d="M383.646,548.581c-13.635,0-24.531-3.092-32.688-9.276-8.157-6.184-12.333-15.559-12.527-28.123h24.763c.292,5.309,2.252,9.303,5.88,11.979,3.627,2.679,8.388,4.018,14.28,4.018,5.356,0,9.569-1.083,12.637-3.25,3.068-2.167,4.602-4.979,4.602-8.437,0-3.116-1.449-5.588-4.346-7.414-2.897-1.826-7.317-3.421-13.258-4.785l-11.541-2.702c-9.398-2.143-16.776-5.648-22.133-10.519-5.357-4.869-8.034-11.396-8.034-19.576,0-6.72,1.813-12.601,5.441-17.641,3.627-5.04,8.631-8.972,15.011-11.796,6.379-2.824,13.684-4.237,21.913-4.237,8.425,0,15.729,1.425,21.914,4.273,6.184,2.849,10.98,6.818,14.39,11.906,3.408,5.089,5.161,10.993,5.259,17.713h-24.762c-.342-3.944-1.948-7.012-4.821-9.203-2.874-2.191-6.892-3.287-12.053-3.287s-9.057.999-11.687,2.995c-2.63,1.997-3.944,4.505-3.944,7.523,0,3.36,1.461,5.953,4.383,7.779s6.816,3.275,11.687,4.346l9.423,2.191c10.519,2.338,18.688,6.161,24.507,11.469,5.818,5.308,8.729,12.32,8.729,21.036,0,10.325-3.798,18.407-11.395,24.251s-18.141,8.766-31.629,8.766Z" fill="#fff"/><path d="M440.33,547.12v-108.837h25.492v56.683h1.169l23.374-29.51h28.999l-29.145,35.646,30.313,46.019h-29.438l-19.868-31.19-5.405,6.429v24.762h-25.492Z" fill="#fff"/><path d="M530.394,575.754l5.698-18.627,3.214.877c4.576,1.217,8.277,1.144,11.103-.22,2.823-1.363,4.139-3.725,3.944-7.085l-.073-3.433-30.459-81.811h26.88l12.198,39.955c1.071,3.507,1.973,7.013,2.703,10.519.73,3.507,1.436,7.086,2.118,10.738.827-3.7,1.704-7.305,2.63-10.811.924-3.507,1.947-6.987,3.067-10.446l13.075-39.955h26.588l-34.258,90.283c-2.483,6.622-6.185,12.027-11.103,16.216-4.919,4.188-11.955,6.282-21.11,6.282-6.573,0-11.979-.829-16.216-2.483Z" fill="#fff"/><path d="M657.492,548.655c-10.471,0-19.078-2.203-25.822-6.61-6.745-4.407-10.822-10.506-12.234-18.298l23.666-3.726c1.023,3.556,2.751,6.234,5.187,8.035,2.435,1.802,5.818,2.702,10.153,2.702,3.554,0,6.354-.62,8.4-1.862,2.045-1.242,3.067-2.886,3.067-4.931,0-3.554-3.336-5.989-10.007-7.305l-14.244-2.775c-16.118-3.068-24.178-10.907-24.178-23.521,0-8.132,3.251-14.486,9.752-19.064,6.501-4.577,15.229-6.866,26.187-6.866,10.226,0,18.431,2.021,24.616,6.062,6.184,4.043,9.981,9.569,11.395,16.581l-22.498,3.579c-1.655-5.794-6.015-8.692-13.074-8.692-3.068,0-5.661.621-7.779,1.863-2.119,1.241-3.178,2.91-3.178,5.003,0,1.656.657,3.104,1.972,4.347,1.315,1.241,3.726,2.204,7.231,2.885l15.632,2.922c16.021,3.021,24.032,10.373,24.032,22.06,0,5.601-1.644,10.471-4.931,14.609-3.287,4.14-7.805,7.341-13.55,9.605-5.747,2.264-12.345,3.396-19.795,3.396Z" fill="#fff"/><path d="M721.552,455.888c-3.604,0-6.696-1.193-9.277-3.58-2.581-2.385-3.871-5.283-3.871-8.692s1.29-6.306,3.871-8.691,5.673-3.58,9.277-3.58c3.651,0,6.768,1.194,9.35,3.58,2.58,2.386,3.871,5.284,3.871,8.691s-1.291,6.308-3.871,8.692c-2.582,2.387-5.698,3.58-9.35,3.58ZM708.842,547.12v-81.664h25.492v81.664h-25.492Z" fill="#fff"/><path d="M751.208,547.12v-81.664h24.762v14.901h.877c1.461-5.356,3.883-9.35,7.268-11.979,3.384-2.63,7.316-3.944,11.797-3.944,2.483,0,4.894.292,7.231.876v22.206c-1.218-.438-2.812-.767-4.784-.986-1.973-.219-3.738-.328-5.296-.328-4.724,0-8.632,1.51-11.724,4.528-3.093,3.02-4.639,6.965-4.639,11.833v44.558h-25.492Z" fill="#fff"/><path d="M839.154,547.12l-29.583-81.664h26.88l12.198,39.955c1.12,3.652,2.13,7.354,3.031,11.104s1.79,7.597,2.667,11.541c.778-3.944,1.606-7.779,2.483-11.505.876-3.726,1.874-7.438,2.994-11.14l11.979-39.955h26.589l-29.729,81.664h-29.51Z" fill="#fff"/><path d="M383.646,548.581c-13.635,0-24.531-3.092-32.688-9.276-8.157-6.184-12.333-15.559-12.527-28.123h24.763c.292,5.309,2.252,9.303,5.88,11.979,3.627,2.679,8.388,4.018,14.28,4.018,5.356,0,9.569-1.083,12.637-3.25,3.068-2.167,4.602-4.979,4.602-8.437,0-3.116-1.449-5.588-4.346-7.414-2.897-1.826-7.317-3.421-13.258-4.785l-11.541-2.702c-9.398-2.143-16.776-5.648-22.133-10.519-5.357-4.869-8.034-11.396-8.034-19.576,0-6.72,1.813-12.601,5.441-17.641,3.627-5.04,8.631-8.972,15.011-11.796,6.379-2.824,13.684-4.237,21.913-4.237,8.425,0,15.729,1.425,21.914,4.273,6.184,2.849,10.98,6.818,14.39,11.906,3.408,5.089,5.161,10.993,5.259,17.713h-24.762c-.342-3.944-1.948-7.012-4.821-9.203-2.874-2.191-6.892-3.287-12.053-3.287s-9.057.999-11.687,2.995c-2.63,1.997-3.944,4.505-3.944,7.523,0,3.36,1.461,5.953,4.383,7.779s6.816,3.275,11.687,4.346l9.423,2.191c10.519,2.338,18.688,6.161,24.507,11.469,5.818,5.308,8.729,12.32,8.729,21.036,0,10.325-3.798,18.407-11.395,24.251s-18.141,8.766-31.629,8.766Z" fill="#fff"/><path d="M440.33,547.12v-108.837h25.492v56.683h1.169l23.374-29.51h28.999l-29.145,35.646,30.313,46.019h-29.438l-19.868-31.19-5.405,6.429v24.762h-25.492Z" fill="#fff"/><path d="M530.394,575.754l5.698-18.627,3.214.877c4.576,1.217,8.277,1.144,11.103-.22,2.823-1.363,4.139-3.725,3.944-7.085l-.073-3.433-30.459-81.811h26.88l12.198,39.955c1.071,3.507,1.973,7.013,2.703,10.519.73,3.507,1.436,7.086,2.118,10.738.827-3.7,1.704-7.305,2.63-10.811.924-3.507,1.947-6.987,3.067-10.446l13.075-39.955h26.588l-34.258,90.283c-2.483,6.622-6.185,12.027-11.103,16.216-4.919,4.188-11.955,6.282-21.11,6.282-6.573,0-11.979-.829-16.216-2.483Z" fill="#fff"/><path d="M657.492,548.655c-10.471,0-19.078-2.203-25.822-6.61-6.745-4.407-10.822-10.506-12.234-18.298l23.666-3.726c1.023,3.556,2.751,6.234,5.187,8.035,2.435,1.802,5.818,2.702,10.153,2.702,3.554,0,6.354-.62,8.4-1.862,2.045-1.242,3.067-2.886,3.067-4.931,0-3.554-3.336-5.989-10.007-7.305l-14.244-2.775c-16.118-3.068-24.178-10.907-24.178-23.521,0-8.132,3.251-14.486,9.752-19.064,6.501-4.577,15.229-6.866,26.187-6.866,10.226,0,18.431,2.021,24.616,6.062,6.184,4.043,9.981,9.569,11.395,16.581l-22.498,3.579c-1.655-5.794-6.015-8.692-13.074-8.692-3.068,0-5.661.621-7.779,1.863-2.119,1.241-3.178,2.91-3.178,5.003,0,1.656.657,3.104,1.972,4.347,1.315,1.241,3.726,2.204,7.231,2.885l15.632,2.922c16.021,3.021,24.032,10.373,24.032,22.06,0,5.601-1.644,10.471-4.931,14.609-3.287,4.14-7.805,7.341-13.55,9.605-5.747,2.264-12.345,3.396-19.795,3.396Z" fill="#fff"/><path d="M721.552,455.888c-3.604,0-6.696-1.193-9.277-3.58-2.581-2.385-3.871-5.283-3.871-8.692s1.29-6.306,3.871-8.691,5.673-3.58,9.277-3.58c3.651,0,6.768,1.194,9.35,3.58,2.58,2.386,3.871,5.284,3.871,8.691s-1.291,6.308-3.871,8.692c-2.582,2.387-5.698,3.58-9.35,3.58ZM708.842,547.12v-81.664h25.492v81.664h-25.492Z" fill="#fff"/><path d="M751.208,547.12v-81.664h24.762v14.901h.877c1.461-5.356,3.883-9.35,7.268-11.979,3.384-2.63,7.316-3.944,11.797-3.944,2.483,0,4.894.292,7.231.876v22.206c-1.218-.438-2.812-.767-4.784-.986-1.973-.219-3.738-.328-5.296-.328-4.724,0-8.632,1.51-11.724,4.528-3.093,3.02-4.639,6.965-4.639,11.833v44.558h-25.492Z" fill="#fff"/><path d="M839.154,547.12l-29.583-81.664h26.88l12.198,39.955c1.12,3.652,2.13,7.354,3.031,11.104s1.79,7.597,2.667,11.541c.778-3.944,1.606-7.779,2.483-11.505.876-3.726,1.874-7.438,2.994-11.14l11.979-39.955h26.589l-29.729,81.664h-29.51Z" fill="#fff"/><path d="M239.389,448.217c2.544-3.854,5.467-9.072,6.016-13.68.349-2.93-1.765-5.01-4.552-4.982-2.752.028-5.262,1.033-7.729,2.32-9.156,4.778-20.47,14.629-28.429,21.805-.926.835-2.668,1.304-3.871,1.043l-11.705-2.537-15.3-3.446c-5.135-1.156-10.037-2.442-15.221-3.294-5.825-.957-8.704,1.99-11.135,6.872-.289.579.094,1.093.595,1.398l30.079,18.283c1.033.628,1.895,1.344,2.598,2.291.676.911.463,2.35-.311,3.215-10.005,11.197-32.255,32.367-43.812,42l-6.564,5.502c-5.698,4.75-14.402,7.959-21.697,4.675-1.616-.728-8.023-3.272-8.352-13.907l.002-2.922.051-81.227c.008-12.77,8.375-23.899,19.847-27.871,3.857-1.336,7.516-1.646,11.548-1.642l121.546.113c15.516.014,28.593,13.31,28.6,29.425l.058,121.068c.003,7.099-2.539,13.991-6.594,19.46-5.447,7.349-13.775,11.586-22.729,11.586h-80.239c-4.463,0-8.807-1.59-12.214-4.57-.896-.783-1.503-1.461-1.741-1.857-3.729-6.194-3.761-12.163-3.616-14.141,1.763-24.161,14.553-39.17,28.594-58.471,2.795-3.842,5.727-7.319,8.799-10.817,1.403-1.598,3.857-1.503,5.257-.121.976.962,1.688,2.043,2.326,3.25,2.119,4.009,4.02,7.937,5.705,12.195l8.493,21.461c1.721,4.349,9.528-3.628,8.839-11.123l-1.521-16.547-2.824-28.221c-.059-.592.209-1.378.595-1.8l9.253-10.131c4.204-4.603,7.902-9.427,11.353-14.656Z" fill="#fff"/></svg>