<?xml version="1.0" encoding="UTF-8"?>
<svg id="Layer_1" xmlns="http://www.w3.org/2000/svg" version="1.1" viewBox="0 0 1000 1000">
  <!-- Generator: Adobe Illustrator 30.1.0, SVG Export Plug-In . SVG Version: 2.1.1 Build 136)  -->
  <defs>
    <style>
      .st0 {
        fill: #0f172a;
      }
    </style>
  </defs>
  <path class="st0" d="M941.9,408.8c-18.2-89.3-63.5-169.3-126.4-231l-458.3,411.8H57.9c18.2,89.9,62.9,169.8,125.9,231.6l459.4-412.4h299.2-.6Z"/>
  <path class="st0" d="M446.6,886.2h-172.9c-1.7,0-2.3,2.2-.8,3.1,54.9,32,116.8,52.6,183.2,58.8,284.2,26.9,521-217.2,491.4-500.8-.2-1.5-.4-3.3-.8-6.3s-1.7-1.9-2.7-1l-497.4,446.7v-.6Z"/>
  <path class="st0" d="M553.4,113.8h172.9c1.7,0,2.3-2.2.8-3.1-54.9-32-116.8-52.6-183.2-58.8C259.7,25,22.9,269.1,52.5,552.7c.2,1.5.4,3.3.8,6.3.2,1.3,1.7,1.9,2.7,1L553.4,113.2v.6Z"/>
</svg>