<?xml version="1.0" encoding="UTF-8"?><svg id="Layer_1" xmlns="http://www.w3.org/2000/svg" width="1000" height="1000" viewBox="0 0 1000 1000"><path d="M740.609,278.419c12.603-19.093,27.084-44.947,29.806-67.78,1.731-14.518-8.743-24.823-22.555-24.682-13.634.139-26.07,5.118-38.293,11.496-45.365,23.671-101.421,72.479-140.853,108.031-4.589,4.138-13.218,6.46-19.177,5.169l-57.992-12.569-75.806-17.073c-25.44-5.73-49.731-12.098-75.413-16.318-28.86-4.742-43.122,9.857-55.17,34.048-1.43,2.871.466,5.417,2.948,6.926l149.028,90.586c5.119,3.112,9.39,6.659,12.874,11.351,3.352,4.514,2.292,11.641-1.541,15.931-49.569,55.474-159.808,160.363-217.068,208.09l-32.519,27.262c-28.233,23.532-71.356,39.432-107.499,23.16-8.007-3.605-39.752-16.212-41.38-68.902l.009-14.476.251-402.441c.039-63.27,41.494-118.408,98.334-138.09,19.11-6.617,37.236-8.156,57.216-8.138l602.203.558c76.875.071,141.664,65.943,141.702,145.786l.285,599.835c.017,35.172-12.582,69.317-32.67,96.417-26.989,36.41-68.25,57.402-112.614,57.403h-397.549c-22.112.001-43.634-7.876-60.516-22.643-4.438-3.882-7.444-7.238-8.626-9.201-18.476-30.688-18.632-60.261-17.917-70.06,8.736-119.705,72.101-194.067,141.671-289.697,13.848-19.035,28.377-36.261,43.597-53.591,6.954-7.918,19.107-7.447,26.048-.601,4.834,4.768,8.364,10.122,11.526,16.103,10.498,19.861,19.917,39.323,28.265,60.419l42.079,106.331c8.527,21.548,47.208-17.974,43.795-55.108l-7.535-81.98-13.991-139.822c-.293-2.931,1.037-6.825,2.95-8.92l45.845-50.196c20.828-22.804,39.151-46.707,56.251-72.613Z" fill="#0f172a"/></svg>